<?xml version="1.0" standalone="no"?>
<!DOCTYPE svg PUBLIC "-//W3C//DTD SVG 20010904//EN"
 "http://www.w3.org/TR/2001/REC-SVG-20010904/DTD/svg10.dtd">
<svg version="1.0" xmlns="http://www.w3.org/2000/svg"
 width="536.000000pt" height="966.000000pt" viewBox="0 0 536.000000 966.000000"
 preserveAspectRatio="xMidYMid meet">

<g transform="translate(0.000000,966.000000) scale(0.100000,-0.100000)"
fill="#000000" stroke="none">
<path d="M0 7505 l0 -2155 25 0 25 0 0 2077 c0 1142 2 2074 4 2072 3 -3 592
-1604 1310 -3558 l1306 -3553 -275 -686 c-152 -378 -279 -690 -283 -694 -4 -3
-297 763 -652 1703 l-644 1709 -358 0 -358 0 18 -48 c840 -2233 1648 -4369
1651 -4366 8 8 146 347 652 1611 150 376 276 679 280 675 4 -4 195 -519 425
-1145 230 -625 421 -1134 425 -1130 9 10 -19 -63 891 2273 702 1804 814 2090
825 2118 3 8 -5 12 -24 12 l-30 0 -659 -1695 c-362 -932 -662 -1695 -665
-1695 -3 0 -188 497 -411 1105 l-406 1104 234 582 c129 320 234 584 234 586 0
2 -13 3 -29 3 -29 0 -29 -1 -247 -545 -120 -299 -219 -543 -221 -541 -1 1
-169 456 -373 1010 l-370 1007 0 2160 0 2159 -30 0 -30 0 -2 -2071 -3 -2071
-760 2071 -760 2071 -357 0 -358 0 0 -2155z"/>
<path d="M3612 7508 l3 -2153 355 0 355 0 3 1088 2 1087 415 0 415 0 0 30 0
30 -415 0 -415 0 0 1005 0 1005 515 0 515 0 0 30 0 30 -875 0 -875 0 2 -2152z"/>
</g>
</svg>
